<svg width="39" height="39" viewBox="0 0 39 39" fill="none" xmlns="http://www.w3.org/2000/svg">
<path fill-rule="evenodd" clip-rule="evenodd" d="M18.9839 0.971871C18.1015 1.34682 17.5708 2.23548 15.2795 7.17312C13.6621 10.6581 12.9711 11.8867 12.5766 11.9786C12.2851 12.0464 10.073 12.4079 7.66065 12.7818C1.71782 13.7032 1.37648 13.8065 0.964448 14.8127C0.366914 16.271 0.810421 16.9827 4.99961 21.2891L8.91893 25.3177L7.94214 30.9872C7.00817 36.4089 6.98391 36.6936 7.39001 37.4991C7.7783 38.2702 8.65268 38.8509 9.41894 38.8469C9.58716 38.8461 11.9221 37.6545 14.6076 36.1989C17.2935 34.7434 19.601 33.5526 19.736 33.5526C19.8706 33.5526 22.0575 34.6769 24.5954 36.0512C27.1332 37.4255 29.4493 38.6279 29.7418 38.7232C30.538 38.9825 31.8046 38.3292 32.1529 37.4795C32.4083 36.8559 32.3084 35.7761 31.5571 31.0317L30.6546 25.3331L34.7022 21.1493C38.5751 17.1464 38.75 16.9197 38.75 15.905C38.75 14.0014 38.3253 13.807 32.0215 12.8244L26.4949 11.9627L24.0214 6.80373C22.6609 3.96618 21.3831 1.50543 21.1818 1.33491C20.6428 0.878928 19.6057 0.707341 18.9839 0.971871Z" fill="#22B0F2"/>
</svg>
