<svg width="23" height="23" viewBox="0 0 23 23" fill="none" xmlns="http://www.w3.org/2000/svg">
<path fill-rule="evenodd" clip-rule="evenodd" d="M11.5486 0.897969C9.33541 1.24207 7.67508 1.88931 6.78429 2.75511C5.74389 3.76623 5.89639 4.96202 7.17906 5.85096C7.60878 6.14866 7.72414 6.16995 9.12367 6.20848C11.511 6.27432 13.7719 6.68136 15.236 7.30904C15.7953 7.54878 15.8303 7.54994 17.0684 7.36828C21.662 6.69466 23.8701 4.61202 21.9594 2.75511C21.0184 1.84048 19.0736 1.12764 16.7437 0.843242C15.3538 0.673622 12.8203 0.700349 11.5486 0.897969ZM22.0107 7.26103C21.2334 7.75172 19.9242 8.26197 18.7685 8.52427C18.2912 8.63268 17.8326 8.7419 17.7494 8.76689C17.641 8.79964 17.6814 8.9217 17.8917 9.19754C18.2387 9.65236 18.5371 10.4452 18.5371 10.9119C18.5371 11.0948 18.5577 11.2444 18.5828 11.2444C18.7804 11.2444 20.3292 10.6977 20.7933 10.464C22.2414 9.73509 22.7347 9.00547 22.6788 7.67466L22.6446 6.86093L22.0107 7.26103ZM5.80232 7.87772C4.20736 8.1568 3.39443 8.39919 2.43804 8.88086C0.933559 9.63848 0.304947 10.5259 0.592699 11.4862C1.14738 13.3376 5.01577 14.6166 9.56612 14.4532C13.6702 14.3058 16.7803 12.998 17.1017 11.2847C17.1572 10.9888 17.1054 10.7523 16.8953 10.3438C16.3591 9.30167 15.1135 8.62898 12.6363 8.04399C10.9373 7.64273 7.60797 7.56174 5.80232 7.87772ZM21.9175 11.4779C21.2074 11.9078 20.0156 12.3846 19.0288 12.6334L18.5371 12.7575V14.0837C18.5371 14.8129 18.58 15.4097 18.6326 15.4097C18.8216 15.4097 20.345 14.8581 20.7955 14.6264C22.2484 13.8794 22.7345 13.1617 22.6788 11.8457L22.6446 11.0378L21.9175 11.4779ZM0.487526 14.6078C0.487526 16.0734 1.00969 16.7632 2.7082 17.5417C4.47753 18.3526 6.83184 18.7177 9.62293 18.6138C13.1169 18.4838 15.88 17.5452 16.7826 16.1818C17.0428 15.7888 17.0973 15.563 17.1324 14.7337L17.174 13.7511L16.7853 14.0109C14.9304 15.2507 12.1395 15.9081 8.76025 15.901C5.38625 15.8939 2.74835 15.2546 0.805708 13.9732L0.487526 13.7633V14.6078ZM0.508468 18.9062C0.571988 20.1167 0.865526 20.6497 1.79369 21.2395C3.28996 22.1905 5.28895 22.6801 8.0827 22.7797C10.983 22.8832 13.4401 22.4768 15.1638 21.6088C16.6915 20.8395 17.1968 20.0779 17.1252 18.6523L17.0908 17.9681L16.457 18.3683C12.6396 20.779 4.62354 20.656 0.789972 18.1281L0.456055 17.908L0.508468 18.9062Z" fill="#22B0F2"/>
</svg>
