<svg width="75" height="131" viewBox="0 0 75 131" fill="none" xmlns="http://www.w3.org/2000/svg">
<path fill-rule="evenodd" clip-rule="evenodd" d="M58.374 13.9434C62.9313 19.1517 66.7562 28.0221 69.8486 40.5547H74.2432L73.2666 2.46875H69.8486L69.6045 2.95703C68.3024 4.09635 67.4886 4.82878 67.1631 5.1543C66.8376 5.47982 66.3493 5.64258 65.6982 5.64258C63.9079 5.64258 61.3037 4.91016 57.8857 3.44531C51.8636 1.16667 45.5973 0.0273438 39.0869 0.0273438C33.3903 0.0273438 28.182 0.841146 23.4619 2.46875C18.7419 4.09635 14.6729 6.45638 11.2549 9.54883C7.99967 12.6413 5.39551 16.3034 3.44238 20.5352C1.65202 24.7669 0.756836 29.4056 0.756836 34.4512C0.756836 38.3574 1.3265 42.0195 2.46582 45.4375C3.60514 48.8555 5.47689 52.1921 8.08105 55.4473C10.6852 58.5397 14.0218 61.6322 18.0908 64.7246C21.749 67.3979 26.0761 70.1928 31.0722 73.1093L42.9771 51.8867L30.0537 44.2168C22.0785 39.4967 18.0908 33.1491 18.0908 25.1738C18.0908 19.4772 20.0439 14.9199 23.9502 11.502C27.8564 7.92122 33.0648 6.13086 39.5752 6.13086C47.5505 6.13086 53.8167 8.73503 58.374 13.9434ZM60.1244 127.734L51.482 122.886C48.4208 123.988 44.8588 124.539 40.7959 124.539C36.0758 124.539 31.8441 123.888 28.1006 122.586C24.3571 121.121 21.1019 118.842 18.335 115.75C15.568 112.658 13.1266 108.67 11.0107 103.787C8.89486 98.9043 7.02311 92.8822 5.39551 85.7207H1.00098V129.178H4.66309C5.63965 127.876 6.53483 126.98 7.34863 126.492C8.16244 126.004 9.38314 125.76 11.0107 125.76C12.6383 125.76 14.3473 125.923 16.1377 126.248C17.9281 126.574 20.4508 127.143 23.7061 127.957C27.7751 128.934 31.5186 129.585 34.9365 129.91C38.3545 130.398 41.5283 130.643 44.458 130.643C49.8291 130.643 54.8747 129.747 59.5947 127.957C59.7722 127.884 59.9488 127.809 60.1244 127.734Z" fill="#FF0000"/>
</svg>
