<svg width="32" height="32" viewBox="0 0 32 32" fill="none" xmlns="http://www.w3.org/2000/svg">
<path d="M16 11.8364C15.2701 11.8367 14.5566 12.0534 13.9498 12.4591C13.343 12.8648 12.8702 13.4414 12.591 14.1158C12.3119 14.7903 12.239 15.5324 12.3815 16.2483C12.5241 16.9641 12.8757 17.6217 13.392 18.1377C13.9082 18.6538 14.5659 19.0052 15.2818 19.1475C15.9978 19.2898 16.7398 19.2166 17.4142 18.9372C18.0885 18.6578 18.6649 18.1847 19.0704 17.5778C19.4759 16.9708 19.6923 16.2573 19.6923 15.5273C19.6916 14.5484 19.3023 13.6098 18.61 12.9178C17.9176 12.2257 16.9789 11.8368 16 11.8364ZM24.6295 8.99935C24.4416 8.52317 24.1578 8.09068 23.7959 7.7287C23.4339 7.36673 23.0014 7.08299 22.5252 6.89509C21.0721 6.32145 17.6123 6.45016 16 6.45016C14.3877 6.45016 10.9314 6.31661 9.47408 6.89509C8.9979 7.08299 8.56541 7.36673 8.20343 7.7287C7.84146 8.09068 7.55772 8.52317 7.36982 8.99935C6.79687 10.4525 6.92489 13.9158 6.92489 15.5267C6.92489 17.1375 6.79687 20.5967 7.37259 22.0546C7.56049 22.5308 7.84423 22.9633 8.2062 23.3253C8.56818 23.6873 9.00067 23.971 9.47685 24.1589C10.93 24.7325 14.3898 24.6038 16.0028 24.6038C17.6157 24.6038 21.0707 24.7374 22.528 24.1589C23.0042 23.971 23.4367 23.6873 23.7986 23.3253C24.1606 22.9633 24.4444 22.5308 24.6323 22.0546C25.21 20.6015 25.0772 17.1382 25.0772 15.5273C25.0772 13.9165 25.21 10.458 24.6323 9.00004L24.6295 8.99935ZM16 21.2015C14.8778 21.2015 13.7807 20.8687 12.8476 20.2452C11.9145 19.6217 11.1873 18.7355 10.7578 17.6987C10.3283 16.6619 10.216 15.521 10.4349 14.4204C10.6539 13.3197 11.1943 12.3087 11.9878 11.5151C12.7813 10.7216 13.7924 10.1812 14.893 9.96226C15.9937 9.74333 17.1346 9.85569 18.1714 10.2852C19.2082 10.7146 20.0944 11.4419 20.7178 12.375C21.3413 13.3081 21.6741 14.4051 21.6741 15.5273C21.675 16.2727 21.5289 17.011 21.244 17.6998C20.9592 18.3886 20.5413 19.0145 20.0142 19.5416C19.4872 20.0686 18.8613 20.4866 18.1725 20.7714C17.4836 21.0562 16.7454 21.2024 16 21.2015ZM21.908 10.9396C21.646 10.9398 21.3899 10.8622 21.172 10.7168C20.9541 10.5713 20.7842 10.3645 20.6839 10.1225C20.5835 9.88052 20.5572 9.6142 20.6082 9.35724C20.6593 9.10029 20.7854 8.86423 20.9705 8.67894C21.1557 8.49365 21.3917 8.36744 21.6487 8.31628C21.9056 8.26512 22.1719 8.29131 22.414 8.39153C22.656 8.49175 22.8629 8.66151 23.0085 8.87932C23.154 9.09714 23.2317 9.35323 23.2317 9.6152C23.2324 9.78917 23.1988 9.96157 23.1328 10.1225C23.0667 10.2835 22.9695 10.4298 22.8468 10.5531C22.7241 10.6764 22.5782 10.7743 22.4176 10.8411C22.257 10.9079 22.0847 10.9423 21.9108 10.9424L21.908 10.9396ZM28.1786 0.0273438H3.82143C2.94053 0.0273438 2.09571 0.377279 1.47282 1.00017C0.849935 1.62306 0.5 2.46787 0.5 3.34877L0.5 27.7059C0.5 28.5868 0.849935 29.4316 1.47282 30.0545C2.09571 30.6774 2.94053 31.0273 3.82143 31.0273H28.1786C29.0595 31.0273 29.9043 30.6774 30.5272 30.0545C31.1501 29.4316 31.5 28.5868 31.5 27.7059V3.34877C31.5 2.46787 31.1501 1.62306 30.5272 1.00017C29.9043 0.377279 29.0595 0.0273438 28.1786 0.0273438ZM26.9939 20.0943C26.9047 21.8678 26.4999 23.4393 25.2052 24.7305C23.9105 26.0217 22.3405 26.4348 20.569 26.5192C18.7416 26.6223 13.2626 26.6223 11.4351 26.5192C9.66161 26.4299 8.09569 26.0244 6.79895 24.7305C5.50221 23.4365 5.09464 21.8644 5.01022 20.0943C4.90712 18.2661 4.90712 12.7865 5.01022 10.9604C5.09949 9.18687 5.49944 7.61542 6.79895 6.32422C8.09846 5.03301 9.66853 4.62475 11.4351 4.54033C13.2626 4.43723 18.7416 4.43723 20.569 4.54033C22.3425 4.6296 23.9133 5.03509 25.2052 6.32906C26.4971 7.62304 26.9095 9.19518 26.9939 10.9687C27.097 12.7899 27.097 18.2648 26.9939 20.0943Z" fill="#22B0F2"/>
</svg>
