<svg width="78" height="79" viewBox="0 0 78 79" fill="none" xmlns="http://www.w3.org/2000/svg">
<path d="M28.85 23.1624C29.9846 22.5119 31.3915 22.406 32.511 23.2229L54.2952 36.5355C55.3693 37.2011 56.0349 38.3659 56.0349 39.6367C56.0349 40.9074 55.3693 42.0723 54.2952 42.7379L32.511 56.0505C31.3915 56.7312 29.9846 56.7615 28.85 56.111C27.7003 55.4756 26.9893 54.2654 26.9893 52.9493V26.1879C26.9893 25.008 27.7003 23.7977 28.85 23.1624ZM77.8191 39.6367C77.8191 61.0276 60.4825 78.3642 39.0916 78.3642C17.7007 78.3642 0.364136 61.0276 0.364136 39.6367C0.364136 18.2458 17.7007 0.90918 39.0916 0.90918C60.4825 0.90918 77.8191 18.2458 77.8191 39.6367ZM39.0916 8.17059C21.7096 8.17059 7.62554 22.2547 7.62554 39.6367C7.62554 57.0187 21.7096 71.1028 39.0916 71.1028C56.4736 71.1028 70.5577 57.0187 70.5577 39.6367C70.5577 22.2547 56.4736 8.17059 39.0916 8.17059Z" fill="#22B0F2"/>
</svg>
