<svg width="42" height="43" viewBox="0 0 42 43" fill="none" xmlns="http://www.w3.org/2000/svg">
<path d="M30.1219 34.8344L8.16211 12.8746C6.32461 15.4422 5.25 18.5922 5.25 21.9965C5.25 30.6918 12.3047 37.7465 21 37.7465C24.4043 37.7465 27.5543 36.6719 30.1219 34.8344ZM33.8379 31.1183C35.6754 28.5508 36.75 25.4008 36.75 21.9965C36.75 13.3011 29.6953 6.24646 21 6.24646C17.5957 6.24646 14.4457 7.32107 11.8781 9.15857L33.8379 31.1183ZM0 21.9965C0 16.4269 2.21249 11.0855 6.15076 7.14722C10.089 3.20895 15.4305 0.99646 21 0.99646C26.5695 0.99646 31.911 3.20895 35.8492 7.14722C39.7875 11.0855 42 16.4269 42 21.9965C42 27.566 39.7875 32.9074 35.8492 36.8457C31.911 40.784 26.5695 42.9965 21 42.9965C15.4305 42.9965 10.089 40.784 6.15076 36.8457C2.21249 32.9074 0 27.566 0 21.9965Z" fill="#22B0F2"/>
</svg>
