<svg width="32" height="32" viewBox="0 0 32 32" fill="none" xmlns="http://www.w3.org/2000/svg">
<path d="M28.1786 0.0273438H3.82143C2.94053 0.0273438 2.09571 0.377279 1.47282 1.00017C0.849935 1.62306 0.5 2.46787 0.5 3.34877L0.5 27.7059C0.5 28.5868 0.849935 29.4316 1.47282 30.0545C2.09571 30.6774 2.94053 31.0273 3.82143 31.0273H13.3186V20.488H8.95926V15.5273H13.3186V11.7465C13.3186 7.44589 15.8789 5.07038 19.8003 5.07038C21.6783 5.07038 23.6421 5.40529 23.6421 5.40529V9.62627H21.4783C19.3463 9.62627 18.6814 10.9493 18.6814 12.3062V15.5273H23.4407L22.6795 20.488H18.6814V31.0273H28.1786C29.0595 31.0273 29.9043 30.6774 30.5272 30.0545C31.1501 29.4316 31.5 28.5868 31.5 27.7059V3.34877C31.5 2.46787 31.1501 1.62306 30.5272 1.00017C29.9043 0.377279 29.0595 0.0273438 28.1786 0.0273438Z" fill="#22B0F2"/>
</svg>
