<svg width="32" height="33" viewBox="0 0 32 33" fill="none" xmlns="http://www.w3.org/2000/svg">
<path d="M16.9703 13.9682L1.00157 29.9307C0.414069 30.5182 0.414069 31.4682 1.00157 32.0494C1.58907 32.6307 2.53907 32.6369 3.12032 32.0494L6.68282 28.4869H10.9328C14.0391 28.4869 17.0516 27.5869 19.6203 25.9244C20.3141 25.4744 19.9641 24.4869 19.1328 24.4869C18.8141 24.4869 18.5578 24.2307 18.5578 23.9119C18.5578 23.6557 18.7266 23.4369 18.9641 23.3619L24.0266 21.8432C24.1828 21.7932 24.3266 21.7119 24.4453 21.5932L25.8453 20.1932C26.4766 19.5619 26.0266 18.4869 25.1391 18.4869H23.1266C22.8078 18.4869 22.5516 18.2307 22.5516 17.9119C22.5516 17.6557 22.7203 17.4369 22.9578 17.3619L29.9578 15.2619C30.2078 15.1869 30.4203 15.0182 30.5391 14.7807C31.2141 13.4682 31.5641 11.9994 31.5641 10.4932C31.5641 7.93066 30.5453 5.47441 28.7328 3.66191L28.3891 3.31816C26.5828 1.51191 24.1266 0.493164 21.5641 0.493164C19.0016 0.493164 16.5453 1.51191 14.7328 3.32441L8.25157 9.80566C5.25157 12.8057 3.56407 16.8744 3.56407 21.1182V24.5744L15.4141 12.7307C15.8016 12.3432 16.4391 12.3432 16.8266 12.7307C17.1641 13.0682 17.2078 13.5807 16.9641 13.9682H16.9703Z" fill="#22B0F2"/>
</svg>
