<svg width="39" height="39" viewBox="0 0 39 39" fill="none" xmlns="http://www.w3.org/2000/svg">
<path d="M19.5 38.9966C29.9945 38.9966 38.5 30.4911 38.5 19.9966C38.5 9.50205 29.9945 0.996582 19.5 0.996582C9.00547 0.996582 0.5 9.50205 0.5 19.9966C0.5 30.4911 9.00547 38.9966 19.5 38.9966ZM13.1023 13.2649C13.6887 11.6099 15.2621 10.4966 17.0211 10.4966H21.348C23.9383 10.4966 26.0312 12.597 26.0312 15.1798C26.0312 16.8571 25.1332 18.4083 23.6785 19.247L21.2812 20.62C21.2664 21.5849 20.4723 22.3716 19.5 22.3716C18.5129 22.3716 17.7188 21.5774 17.7188 20.5903V19.5884C17.7188 18.9501 18.0602 18.3638 18.6168 18.0446L21.9047 16.1595C22.2535 15.9591 22.4688 15.588 22.4688 15.1872C22.4688 14.5638 21.9641 14.0665 21.348 14.0665H17.0211C16.7688 14.0665 16.5461 14.2224 16.4645 14.4599L16.4348 14.5489C16.1082 15.4767 15.084 15.9591 14.1637 15.6325C13.2434 15.306 12.7535 14.2817 13.0801 13.3614L13.1098 13.2724L13.1023 13.2649ZM21.875 27.1216C21.875 28.4353 20.8137 29.4966 19.5 29.4966C18.1863 29.4966 17.125 28.4353 17.125 27.1216C17.125 25.8079 18.1863 24.7466 19.5 24.7466C20.8137 24.7466 21.875 25.8079 21.875 27.1216Z" fill="#22B0F2"/>
</svg>
