<svg width="38" height="40" viewBox="0 0 38 40" fill="none" xmlns="http://www.w3.org/2000/svg">
<path fill-rule="evenodd" clip-rule="evenodd" d="M6.14704 27.7393H10.2455V27.1368H9.01693C8.30471 27.136 7.62191 26.8544 7.11829 26.3538C6.61468 25.8532 6.33137 25.1745 6.3305 24.4666V13.0691C6.33225 12.7175 6.40375 12.3696 6.54092 12.0456C6.67809 11.7215 6.87823 11.4274 7.12988 11.1803C7.37836 10.9316 7.67388 10.7343 7.99943 10.5996C8.32499 10.4649 8.67413 10.3955 9.02676 10.3955H17.5447C17.5683 10.4011 17.5913 10.4088 17.6135 10.4183C18.2075 10.4196 18.7962 10.53 19.3498 10.744C19.5473 10.8262 19.736 10.9276 19.9133 11.0468L32.2152 0.215938C32.345 0.102419 32.5109 0.0378702 32.6837 0.033578H35.2325C35.3289 0.00317345 35.4306 -0.00674061 35.5311 0.00447994C35.6315 0.0157005 35.7285 0.0478046 35.8157 0.0987066C35.9741 0.189886 36.0923 0.33686 36.1469 0.510538C36.2015 0.684216 36.1885 0.871941 36.1105 1.03656C36.1105 8.05416 36.0909 15.0848 36.0909 22.0991C36.3386 22.194 36.5623 22.3419 36.7461 22.5322C36.9702 22.7547 37.1356 23.0287 37.2277 23.3299C37.3198 23.6311 37.3358 23.9502 37.2743 24.259C37.2127 24.5678 37.0755 24.8568 36.8748 25.1003C36.6741 25.3438 36.4161 25.5344 36.1236 25.6552C36.13 25.7775 36.1625 25.8972 36.219 26.0061C36.2755 26.115 36.3546 26.2108 36.4513 26.2869C36.8209 26.5741 37.0865 26.973 37.208 27.4234C37.3262 27.8201 37.3115 28.2442 37.1662 28.6318C37.0208 29.0194 36.7527 29.3496 36.4021 29.5726C36.0154 29.8459 35.5638 30.0143 35.0917 30.0611C34.5891 30.1137 34.0824 30.0114 33.6403 29.768C32.8442 29.3186 32.2578 28.3775 32.3626 26.7754L33.7583 26.8633C33.696 27.8402 33.9614 28.3482 34.3316 28.5566C34.5226 28.6602 34.7412 28.7023 34.9573 28.6771C35.1844 28.6547 35.4021 28.5751 35.5896 28.4459C35.6973 28.3834 35.7822 28.2886 35.8322 28.1751C35.8823 28.0616 35.8948 27.9352 35.8681 27.8142C35.8113 27.623 35.6969 27.4537 35.5405 27.329C35.1768 27.0033 34.8263 26.7005 34.728 25.7007C34.4657 25.6039 34.2276 25.4517 34.0302 25.2546C33.8507 25.077 33.7083 24.8659 33.6111 24.6334C33.5139 24.4009 33.4639 24.1517 33.4639 23.8999C33.4639 23.6482 33.5139 23.3989 33.6111 23.1665C33.7083 22.934 33.8507 22.7229 34.0302 22.5453C34.2085 22.3591 34.4254 22.2135 34.6658 22.1187C34.6658 15.938 34.6658 9.75076 34.6658 3.55703L25.8759 18.6603L25.853 18.6994C25.938 19.0038 25.981 19.3182 25.9807 19.634V24.4666C25.9801 24.8165 25.9101 25.1629 25.7746 25.4858C25.6391 25.8088 25.4409 26.1021 25.1912 26.3488C24.943 26.5969 24.648 26.794 24.323 26.9287C23.9981 27.0633 23.6496 27.133 23.2976 27.1336H21.9871V27.736H25.2829C26.8451 27.742 28.3415 28.3615 29.4461 29.4595C30.5507 30.5574 31.1739 32.0448 31.18 33.5976V34.1349C31.1739 35.6876 30.5507 37.1751 29.4461 38.273C28.3415 39.371 26.8451 39.9905 25.2829 39.9965H6.14704C4.5849 39.9905 3.08848 39.371 1.98387 38.273C0.879272 37.1751 0.25604 35.6876 0.25 34.1349L0.25 33.5976C0.25604 32.0448 0.879272 30.5574 1.98387 29.4595C3.08848 28.3615 4.5849 27.742 6.14704 27.736V27.7393ZM20.9584 12.0465L24.8898 16.9898L25.0503 8.43516L20.9584 12.0465ZM24.4934 20.9659H16.7748L15.3005 11.8642H9.01693C8.69631 11.8642 8.38882 11.9908 8.16211 12.2161C7.9354 12.4415 7.80804 12.7471 7.80804 13.0658V24.4633C7.8089 24.7817 7.93654 25.0869 8.16307 25.312C8.38959 25.5372 8.69658 25.6641 9.01693 25.6649H23.2976C23.6151 25.6607 23.9182 25.5327 24.1419 25.3086C24.3655 25.0845 24.4917 24.7822 24.4934 24.4666V20.9659ZM31.3732 2.89923L31.7009 5.73233L34.1711 1.49897H32.972L31.3732 2.89923ZM30.3904 8.02485L26.2232 8.25932L26.0889 15.4235L30.3904 8.02485ZM26.5934 7.09677L30.6885 6.86556L30.3183 3.81755L26.5934 7.09677ZM7.38869 31.3083C7.88049 31.3083 8.36125 31.4533 8.77016 31.7249C9.17908 31.9964 9.49779 32.3825 9.68599 32.8341C9.8742 33.2857 9.92344 33.7827 9.82749 34.2621C9.73155 34.7416 9.49473 35.182 9.14697 35.5276C8.79922 35.8733 8.35615 36.1087 7.8738 36.2041C7.39145 36.2994 6.89148 36.2505 6.43712 36.0634C5.98275 35.8764 5.5944 35.5596 5.32117 35.1531C5.04794 34.7466 4.90211 34.2688 4.90211 33.7799C4.90211 33.1244 5.16409 32.4958 5.63041 32.0322C6.09674 31.5687 6.72921 31.3083 7.38869 31.3083ZM15.7199 31.3083C16.2117 31.3083 16.6924 31.4533 17.1014 31.7249C17.5103 31.9964 17.829 32.3825 18.0172 32.8341C18.2054 33.2857 18.2546 33.7827 18.1587 34.2621C18.0628 34.7416 17.8259 35.182 17.4782 35.5276C17.1304 35.8733 16.6874 36.1087 16.205 36.2041C15.7227 36.2994 15.2227 36.2505 14.7683 36.0634C14.314 35.8764 13.9256 35.5596 13.6524 35.1531C13.3791 34.7466 13.2333 34.2688 13.2333 33.7799C13.2329 33.4552 13.2969 33.1336 13.4217 32.8336C13.5465 32.5335 13.7297 32.2609 13.9607 32.0313C14.1916 31.8017 14.4659 31.6196 14.7678 31.4956C15.0697 31.3715 15.3932 31.3079 15.7199 31.3083ZM24.0478 31.3083C24.5396 31.3083 25.0204 31.4533 25.4293 31.7249C25.8382 31.9964 26.1569 32.3825 26.3451 32.8341C26.5333 33.2857 26.5826 33.7827 26.4866 34.2621C26.3907 34.7416 26.1539 35.182 25.8061 35.5276C25.4583 35.8733 25.0153 36.1087 24.5329 36.2041C24.0506 36.2994 23.5506 36.2505 23.0962 36.0634C22.6419 35.8764 22.2535 35.5596 21.9803 35.1531C21.7071 34.7466 21.5612 34.2688 21.5612 33.7799C21.5612 33.4554 21.6256 33.134 21.7505 32.8341C21.8755 32.5342 22.0586 32.2617 22.2895 32.0322C22.5204 31.8027 22.7946 31.6207 23.0962 31.4965C23.3979 31.3722 23.7213 31.3083 24.0478 31.3083ZM6.10117 29.7257H25.3353C27.3502 29.7257 28.9981 31.5916 28.9981 33.8744C28.9981 36.1539 27.36 38.0263 25.3353 38.0263H6.10117C4.08635 38.0263 2.43846 36.1441 2.43846 33.8646C2.43846 31.5851 4.07652 29.7159 6.10117 29.7159V29.7257Z" fill="#22B0F2"/>
</svg>
